<svg width="151" height="33" viewBox="0 0 151 33" fill="none" xmlns="http://www.w3.org/2000/svg">
<path d="M53.447 18.931L52.553 21.4612H52.4785C52.3295 20.8907 52.0563 20.0225 51.6093 18.9806L46.8162 6.94961H42.1225V26.1248H45.2268V14.2922C45.2268 13.5481 45.2268 12.7047 45.202 11.6628C45.1771 11.1419 45.1275 10.745 45.1026 10.4473H45.1772C45.3262 11.1915 45.5 11.7372 45.6242 12.0845L51.3858 26.0752H53.5712L59.2831 11.9605C59.4073 11.638 59.5315 10.993 59.6556 10.4473H59.7301C59.6556 11.8612 59.606 13.1264 59.5811 13.8953V26.0504H62.8841V6.9H58.3642L53.447 18.931ZM66.0132 12.3078H69.2417V26.0504H66.0132V12.3078ZM67.6523 6.5031C67.106 6.5031 66.6589 6.70155 66.2864 7.04884C65.9139 7.39612 65.7152 7.84264 65.7152 8.38837C65.7152 8.9093 65.9139 9.35581 66.2864 9.7031C66.6589 10.0504 67.106 10.224 67.6523 10.224C68.1987 10.224 68.6705 10.0256 69.0182 9.7031C69.3907 9.35581 69.5894 8.9093 69.5894 8.38837C69.5894 7.86744 69.3907 7.42093 69.0182 7.04884C68.6954 6.70155 68.2235 6.5031 67.6523 6.5031ZM80.6904 12.1837C80.0944 12.0597 79.4735 11.9853 78.8775 11.9853C77.4123 11.9853 76.0712 12.3078 74.9536 12.9527C73.8361 13.5977 72.942 14.4907 72.3709 15.607C71.7748 16.7481 71.4768 18.0628 71.4768 19.576C71.4768 20.8907 71.7748 22.0566 72.346 23.1233C72.9172 24.1651 73.7119 25.0085 74.7798 25.5791C75.798 26.1496 76.9901 26.4473 78.3311 26.4473C79.8709 26.4473 81.1871 26.1248 82.2301 25.5295L82.255 25.5047V22.5279L82.1308 22.6271C81.6589 22.9744 81.1126 23.2721 80.5662 23.4457C79.995 23.6442 79.4735 23.7434 79.0265 23.7434C77.7351 23.7434 76.7169 23.3713 75.9967 22.5527C75.2517 21.7589 74.8791 20.6674 74.8791 19.3031C74.8791 17.8891 75.2517 16.7729 76.0215 15.9543C76.7914 15.1357 77.8096 14.714 79.0513 14.714C80.0944 14.714 81.1623 15.0612 82.1308 15.7558L82.255 15.855V12.7047L82.2301 12.6798C81.8079 12.5062 81.3361 12.3078 80.6904 12.1837ZM91.3444 12.0845C90.5497 12.0845 89.8046 12.3326 89.1589 12.8535C88.6126 13.3 88.2401 13.945 87.9172 14.714H87.8924V12.3078H84.6639V26.0504H87.8924V19.0302C87.8924 17.8395 88.1407 16.8473 88.6871 16.1279C89.2334 15.3837 89.9288 15.0116 90.7732 15.0116C91.0712 15.0116 91.3692 15.086 91.7417 15.1357C92.0894 15.2349 92.3377 15.3341 92.5116 15.4581L92.6358 15.5574V12.3326L92.5613 12.3078C92.3378 12.1589 91.8907 12.0845 91.3444 12.0845ZM100.136 12.0101C97.8758 12.0101 96.0629 12.6798 94.7964 13.9946C93.505 15.3093 92.8841 17.1202 92.8841 19.4023C92.8841 21.5357 93.5298 23.2721 94.7715 24.5372C96.0132 25.7775 97.702 26.4225 99.8129 26.4225C102.023 26.4225 103.786 25.7527 105.053 24.4132C106.344 23.0736 106.965 21.2876 106.965 19.0798C106.965 16.8969 106.369 15.1605 105.152 13.8953C103.985 12.6302 102.272 12.0101 100.136 12.0101ZM102.719 22.5775C102.123 23.3465 101.179 23.7186 100.012 23.7186C98.8444 23.7186 97.9007 23.3465 97.2301 22.5279C96.5596 21.7589 96.2368 20.6426 96.2368 19.2287C96.2368 17.7651 96.5844 16.6488 97.2301 15.855C97.9007 15.0612 98.8195 14.6643 99.9868 14.6643C101.129 14.6643 102.023 15.0364 102.669 15.8054C103.315 16.5744 103.662 17.6907 103.662 19.1543C103.613 20.6426 103.339 21.8085 102.719 22.5775ZM114.167 18.0132C113.149 17.5915 112.503 17.269 112.205 16.9961C111.957 16.7481 111.833 16.4008 111.833 15.9543C111.833 15.5822 111.982 15.2101 112.354 14.962C112.727 14.714 113.149 14.5899 113.77 14.5899C114.316 14.5899 114.887 14.6891 115.434 14.838C115.98 14.9868 116.477 15.2101 116.874 15.5078L116.998 15.607V12.5806L116.924 12.5558C116.551 12.407 116.055 12.2581 115.459 12.1341C114.863 12.0349 114.316 11.9853 113.869 11.9853C112.329 11.9853 111.063 12.3574 110.07 13.176C109.076 13.945 108.604 14.9868 108.604 16.2023C108.604 16.8473 108.704 17.4178 108.927 17.8891C109.151 18.3605 109.474 18.807 109.921 19.1791C110.368 19.5264 111.013 19.9233 111.907 20.2954C112.652 20.6178 113.224 20.8659 113.571 21.0643C113.919 21.2628 114.142 21.486 114.316 21.6597C114.44 21.8581 114.515 22.1062 114.515 22.4287C114.515 23.3465 113.82 23.793 112.404 23.793C111.858 23.793 111.286 23.6938 110.616 23.4705C109.945 23.2473 109.325 22.9248 108.803 22.5527L108.679 22.4535V25.6039L108.753 25.6287C109.225 25.8519 109.796 26.0008 110.492 26.1744C111.187 26.2985 111.808 26.3977 112.354 26.3977C114.018 26.3977 115.384 26.0256 116.353 25.207C117.346 24.4132 117.868 23.3961 117.868 22.0814C117.868 21.1636 117.619 20.345 117.073 19.7248C116.353 19.1295 115.459 18.5093 114.167 18.0132ZM126.386 12.0101C124.126 12.0101 122.313 12.6798 121.046 13.9946C119.78 15.3093 119.134 17.1202 119.134 19.4023C119.134 21.5357 119.78 23.2721 121.022 24.5372C122.263 25.7775 123.952 26.4225 126.063 26.4225C128.273 26.4225 130.036 25.7527 131.303 24.4132C132.594 23.0736 133.215 21.2876 133.215 19.0798C133.215 16.8969 132.619 15.1605 131.402 13.8953C130.235 12.6302 128.522 12.0101 126.386 12.0101ZM128.944 22.5775C128.348 23.3465 127.404 23.7186 126.237 23.7186C125.045 23.7186 124.126 23.3465 123.455 22.5279C122.785 21.7589 122.462 20.6426 122.462 19.2287C122.462 17.7651 122.81 16.6488 123.455 15.855C124.126 15.0612 125.045 14.6643 126.212 14.6643C127.329 14.6643 128.248 15.0364 128.894 15.8054C129.54 16.5744 129.887 17.6907 129.887 19.1543C129.887 20.6426 129.565 21.8085 128.944 22.5775ZM150.475 14.962V12.3078H147.222V8.23954L147.123 8.26434L144.043 9.18217L143.969 9.20698V12.3078H139.101V10.5713C139.101 9.77752 139.3 9.15736 139.647 8.76046C139.995 8.36357 140.517 8.16512 141.162 8.16512C141.609 8.16512 142.081 8.26434 142.603 8.4876L142.727 8.56202V5.75891L142.652 5.73411C142.205 5.58527 141.609 5.48605 140.839 5.48605C139.871 5.48605 139.026 5.7093 138.257 6.0814C137.487 6.5031 136.916 7.07364 136.493 7.84264C136.071 8.58682 135.848 9.43023 135.848 10.3977V12.3078H133.588V14.9372H135.848V26.0504H139.101V14.962H143.969V22.0318C143.969 24.9341 145.334 26.3977 148.066 26.3977C148.513 26.3977 148.985 26.3233 149.432 26.2488C149.904 26.1496 150.252 26.0256 150.45 25.9264L150.475 25.9016V23.2473L150.351 23.3465C150.152 23.4705 149.978 23.5698 149.68 23.6442C149.432 23.7186 149.209 23.7434 149.035 23.7434C148.389 23.7434 147.942 23.5946 147.619 23.2225C147.321 22.8752 147.172 22.3047 147.172 21.4612V14.962H150.475Z" fill="currentColor"/>
<path d="M0.5 0.5H15.7235V15.7062H0.5V0.5Z" fill="currentColor"/>
<path d="M17.3129 0.5H32.5364V15.7062H17.3129V0.5Z" fill="currentColor"/>
<path d="M0.5 17.2938H15.7235V32.5H0.5V17.2938Z" fill="currentColor"/>
<path d="M17.3129 17.2938H32.5364V32.5H17.3129V17.2938Z" fill="currentColor"/>
</svg>
