<svg width="27" height="27" viewBox="0 0 27 27" fill="none" xmlns="http://www.w3.org/2000/svg">
<path fill-rule="evenodd" clip-rule="evenodd" d="M7.23956 2.45888C9.01073 1.60384 11.3944 1.1001 13.9783 1.1001C16.5623 1.1001 18.9459 1.60384 20.7171 2.45888C22.4251 3.2834 23.8551 4.5958 23.8551 6.33371V20.5727C23.8551 22.3106 22.4251 23.623 20.7171 24.4476C18.9459 25.3026 16.5623 25.8063 13.9783 25.8063C11.3944 25.8063 9.01073 25.3026 7.23956 24.4476C5.53161 23.623 4.10156 22.3106 4.10156 20.5727V6.33371C4.10156 4.5958 5.53161 3.2834 7.23956 2.45888ZM5.90156 9.40706V13.4532C5.90156 14.1087 6.48107 14.9631 8.0221 15.7071C9.49989 16.4205 11.6047 16.8868 13.9783 16.8868C16.352 16.8868 18.4568 16.4205 19.9346 15.7071C21.4756 14.9631 22.0551 14.1087 22.0551 13.4532V9.40706C21.6473 9.7112 21.193 9.97881 20.7171 10.2085C18.9459 11.0636 16.5623 11.5673 13.9783 11.5673C11.3944 11.5673 9.01073 11.0636 7.23956 10.2085C6.76368 9.97881 6.30937 9.7112 5.90156 9.40706ZM22.0551 6.33371C22.0551 6.98919 21.4756 7.8436 19.9346 8.58754C18.4568 9.30096 16.352 9.76733 13.9783 9.76733C11.6047 9.76733 9.49989 9.30096 8.0221 8.58754C6.48107 7.8436 5.90156 6.98919 5.90156 6.33371C5.90156 5.67823 6.48107 4.82382 8.0221 4.07988C9.49989 3.36647 11.6047 2.9001 13.9783 2.9001C16.352 2.9001 18.4568 3.36647 19.9346 4.07988C21.4756 4.82382 22.0551 5.67823 22.0551 6.33371ZM22.0551 16.5266C21.6473 16.8307 21.193 17.0983 20.7171 17.3281C18.9459 18.1831 16.5623 18.6868 13.9783 18.6868C11.3944 18.6868 9.01073 18.1831 7.23956 17.3281C6.76368 17.0983 6.30937 16.8307 5.90156 16.5266V20.5727C5.90156 21.2282 6.48107 22.0826 8.0221 22.8266C9.49989 23.54 11.6047 24.0063 13.9783 24.0063C16.352 24.0063 18.4568 23.54 19.9346 22.8266C21.4756 22.0826 22.0551 21.2282 22.0551 20.5727V16.5266Z" fill="currentColor"/>
</svg>
