<svg width="119" height="32" viewBox="0 0 119 32" fill="none" xmlns="http://www.w3.org/2000/svg">
<path d="M57.1315 1.33267H48.3929V5.33255H57.1315V6.66898H49.7397V10.6689H58.4764V1.33925H57.1324L57.1315 1.33267ZM57.1315 8.66704V9.33243H51.0827V7.99976H57.1315V8.66704ZM57.1315 3.33261V4.00082H49.7397V2.66439H57.1324L57.1315 3.33261ZM65.8682 10.666H68.5523V6.66992H61.1624V5.33725H69.901V1.33643H59.8185V10.666H65.8682ZM61.1624 3.33355V2.66627H68.5523V3.99988H61.1624V3.33261V3.33355ZM63.8522 9.33337H61.1624V7.99976H67.2216V9.33337H63.8522ZM59.8194 0H58.4755V1.33267H59.8194V0ZM73.8952 21.3829V29.3441L73.2251 28.6815L72.5569 28.0171L71.8887 27.3545L71.2205 26.69L70.5504 26.0275L69.8803 25.364L69.2121 24.7014L68.5439 24.0369L67.8757 23.3725L67.2056 22.7099L66.5373 22.0474L65.8682 21.3838H64.5299V31.9972H65.8682V23.3725L66.5373 24.0369L67.2056 24.7014L67.8747 25.364L68.5429 26.0275L69.213 26.69L69.8812 27.3545L70.5495 28.0171L71.2196 28.6815L71.8878 29.3441L72.5579 30.0076L73.2261 30.672L73.8943 31.3346L74.5625 31.9972H75.2326V21.3838H73.8962L73.8952 21.3829ZM95.4315 25.364H94.0942V21.3829H86.0681V31.9991H96.7727V25.3574H95.4344L95.4315 25.364ZM87.4054 24.6957V22.7099H92.7559V25.364H87.4054V24.6957ZM95.4315 27.3498V30.6702H87.4054V26.6919H95.4315V27.3498ZM117.628 25.364H115.622V21.3829H107.595V31.9991H118.296V25.3574L117.628 25.364ZM108.932 24.6957V22.7099H114.285V25.364H108.932V24.6957ZM116.96 27.3498V30.6702H108.932V26.6919H116.96V27.3498ZM52.4493 21.3829H43.083V31.9972H53.7838V30.672H44.4232V28.0171H52.4455V26.69H44.4232V22.7099H53.7838V21.3838H52.4493V21.3829ZM9.36161 21.3829H0V31.9991H10.7027V21.3829H9.36161ZM9.36161 23.3744V30.672H1.33643V22.7099H9.36161V23.3744ZM30.9186 21.3838H21.5551V32H22.8934V28.018H32.256V21.3763H30.9186V21.3838ZM30.9186 23.3753V26.6957H22.8934V22.7109H30.9186V23.3753Z" fill="currentColor"/>
</svg>
