<svg width="50" height="50" viewBox="0 0 50 50" fill="none" xmlns="http://www.w3.org/2000/svg">
<g clip-path="url(#clip0_1_36)">
<mask id="mask0_1_36" style="mask-type:luminance" maskUnits="userSpaceOnUse" x="0" y="0" width="50" height="50">
<path d="M50 0H0V50H50V0Z" fill="white"/>
</mask>
<g mask="url(#mask0_1_36)">
<path d="M18.5234 0.783966L0.79438 31.4906L31.501 49.2196L49.23 18.513L18.5234 0.783966Z" fill="currentColor" fill-opacity="0.49"/>
<path d="M31.7021 -0.0204315L-0.0552368 18.3152L18.2804 50.0726L50.0378 31.7369L31.7021 -0.0204315Z" fill="currentColor" fill-opacity="0.2"/>
</g>
<path fill-rule="evenodd" clip-rule="evenodd" d="M7 7H42.458V42.458H7V7ZM19.9619 25.7634L22.5191 33.0916H24.8092L21.9847 25.3435C23.0153 25 23.7023 24.3893 24.0077 23.5114C24.3512 22.6336 24.5039 21.5267 24.5039 20.1908C24.5039 18.9694 24.3894 17.9771 24.1985 17.2137C24.0077 16.4504 23.5497 15.8397 22.8626 15.3817C22.1756 14.9237 21.1451 14.6947 19.771 14.6947H12.7099V33.0916H14.8474V25.7634H19.9619ZM22.1756 22.3664C22.0229 22.8626 21.7176 23.2443 21.2596 23.5114C20.7634 23.7786 20.0382 23.8931 19.084 23.8931H14.8474V16.6031H19.2367C20.1909 16.6031 20.8779 16.7176 21.3359 16.9847C21.7939 17.2519 22.0993 17.5954 22.2138 18.0916C22.3283 18.5878 22.4046 19.2748 22.4046 20.229C22.4046 21.1451 22.3283 21.8703 22.1756 22.3664ZM27.4046 29.313C27.4046 30.8397 27.7481 31.8703 28.3588 32.4428C29.0077 33.0153 30.0001 33.2824 31.4123 33.2443C32.3664 33.2443 33.2062 33.0916 33.9314 32.8244C34.6566 32.5573 35.1909 31.9848 35.4963 31.1451H35.6108L35.7253 33.0534H37.5573V24.4656C37.5573 23.0534 37.4428 21.9848 37.1756 21.2596C36.9084 20.5344 36.4123 20 35.7253 19.6946C35.0001 19.3893 33.9314 19.2366 32.5191 19.2366C30.8779 19.2366 29.4276 19.3511 28.168 19.6183V21.2596C28.626 21.1832 29.2367 21.1069 30.0001 21.0687L30.2593 21.0549L30.2594 21.0549C30.8798 21.0219 31.4341 20.9924 31.8703 20.9924C33.0153 20.9924 33.8169 21.0687 34.2749 21.1832C34.7711 21.3359 35.0764 21.6413 35.2673 22.0993C35.4581 22.5573 35.5344 23.3588 35.5344 24.4656V25.3817C33.1298 25.3053 31.6794 25.2672 31.1833 25.2672C30.1909 25.2672 29.4275 25.3817 28.8932 25.6489C28.3588 25.916 27.9771 26.3359 27.7481 26.9084C27.5191 27.4809 27.4046 28.2824 27.4046 29.313ZM35.0764 30.3817C34.8474 30.8397 34.4657 31.1451 34.0077 31.2977C33.5115 31.4504 32.9008 31.5267 32.1756 31.6031C31.4123 31.6031 30.8397 31.5267 30.4581 31.4122C30.1146 31.2596 29.8474 31.0306 29.6947 30.7252C29.5421 30.4199 29.4657 29.9237 29.4657 29.2366C29.4657 28.5496 29.5421 28.0534 29.6566 27.7099C29.7711 27.3664 30.0001 27.1374 30.3054 27.0229C30.6108 26.9084 31.1069 26.8321 31.7558 26.8321H35.5726V27.5954C35.5726 28.7404 35.4199 29.6946 35.0764 30.3817Z" fill="currentColor"/>
</g>
<defs>
<clipPath id="clip0_1_36">
<rect width="50" height="50" fill="white"/>
</clipPath>
</defs>
</svg>
