<svg width="27" height="27" viewBox="0 0 27 27" fill="none" xmlns="http://www.w3.org/2000/svg">
<g clip-path="url(#clip0_45_199)">
<path d="M13.5 16.875C12.8325 16.875 12.18 16.6771 11.625 16.3062C11.0699 15.9354 10.6374 15.4083 10.3819 14.7916C10.1265 14.1749 10.0596 13.4963 10.1899 12.8416C10.3201 12.1869 10.6415 11.5855 11.1135 11.1135C11.5855 10.6415 12.1869 10.3201 12.8416 10.1899C13.4963 10.0596 14.1749 10.1265 14.7916 10.3819C15.4083 10.6374 15.9354 11.0699 16.3062 11.625C16.6771 12.18 16.875 12.8325 16.875 13.5C16.874 14.3948 16.5181 15.2527 15.8854 15.8854C15.2527 16.5181 14.3948 16.874 13.5 16.875ZM13.5 11.8125C13.1662 11.8125 12.84 11.9115 12.5625 12.0969C12.285 12.2823 12.0687 12.5459 11.941 12.8542C11.8132 13.1626 11.7798 13.5019 11.8449 13.8292C11.91 14.1566 12.0708 14.4572 12.3068 14.6932C12.5428 14.9292 12.8434 15.09 13.1708 15.1551C13.4981 15.2202 13.8374 15.1868 14.1458 15.059C14.4541 14.9313 14.7177 14.715 14.9031 14.4375C15.0885 14.16 15.1875 13.8338 15.1875 13.5C15.187 13.0526 15.0091 12.6236 14.6927 12.3073C14.3764 11.9909 13.9474 11.813 13.5 11.8125Z" fill="currentColor"/>
<path d="M4.21875 16.875C3.55124 16.875 2.89872 16.6771 2.3437 16.3062C1.78869 15.9354 1.3561 15.4083 1.10066 14.7916C0.845212 14.1749 0.778376 13.4963 0.908601 12.8416C1.03883 12.1869 1.36026 11.5855 1.83227 11.1135C2.30427 10.6415 2.90564 10.3201 3.56032 10.1899C4.21501 10.0596 4.89361 10.1265 5.51031 10.3819C6.12701 10.6374 6.65411 11.0699 7.02496 11.625C7.39581 12.18 7.59375 12.8325 7.59375 13.5C7.59275 14.3948 7.23684 15.2527 6.60413 15.8854C5.97141 16.5181 5.11355 16.874 4.21875 16.875ZM4.21875 11.8125C3.885 11.8125 3.55873 11.9115 3.28123 12.0969C3.00372 12.2823 2.78743 12.5459 2.6597 12.8542C2.53198 13.1626 2.49856 13.5019 2.56368 13.8292C2.62879 14.1566 2.78951 14.4572 3.02551 14.6932C3.26151 14.9292 3.56219 15.09 3.88954 15.1551C4.21688 15.2202 4.55618 15.1868 4.86453 15.059C5.17288 14.9313 5.43643 14.715 5.62186 14.4375C5.80728 14.16 5.90625 13.8338 5.90625 13.5C5.90574 13.0526 5.72778 12.6237 5.41143 12.3073C5.09507 11.991 4.66615 11.813 4.21875 11.8125Z" fill="currentColor"/>
<path d="M8.4375 26.1563C7.76999 26.1563 7.11747 25.9583 6.56245 25.5875C6.00744 25.2166 5.57485 24.6895 5.31941 24.0728C5.06396 23.4561 4.99713 22.7775 5.12735 22.1228C5.25758 21.4681 5.57901 20.8668 6.05102 20.3948C6.52302 19.9228 7.12439 19.6013 7.77907 19.4711C8.43376 19.3409 9.11236 19.4077 9.72906 19.6632C10.3458 19.9186 10.8729 20.3512 11.2437 20.9062C11.6146 21.4612 11.8125 22.1137 11.8125 22.7813C11.8115 23.676 11.4556 24.5339 10.8229 25.1666C10.1902 25.7993 9.3323 26.1552 8.4375 26.1563ZM8.4375 21.0938C8.10375 21.0938 7.77748 21.1927 7.49998 21.3781C7.22247 21.5636 7.00618 21.8271 6.87845 22.1355C6.75073 22.4438 6.71731 22.7831 6.78243 23.1105C6.84754 23.4378 7.00826 23.7385 7.24426 23.9745C7.48026 24.2105 7.78094 24.3712 8.10829 24.4363C8.43563 24.5014 8.77493 24.468 9.08328 24.3403C9.39163 24.2126 9.65518 23.9963 9.84061 23.7188C10.026 23.4413 10.125 23.115 10.125 22.7813C10.1245 22.3338 9.94659 21.9049 9.63023 21.5885C9.31386 21.2722 8.88491 21.0942 8.4375 21.0938Z" fill="currentColor"/>
<path d="M18.5625 26.1563C17.895 26.1563 17.2425 25.9583 16.6875 25.5875C16.1324 25.2166 15.6999 24.6895 15.4444 24.0728C15.189 23.4561 15.1221 22.7775 15.2524 22.1228C15.3826 21.4681 15.704 20.8668 16.176 20.3948C16.648 19.9228 17.2494 19.6013 17.9041 19.4711C18.5588 19.3409 19.2374 19.4077 19.8541 19.6632C20.4708 19.9186 20.9979 20.3512 21.3687 20.9062C21.7396 21.4612 21.9375 22.1137 21.9375 22.7813C21.9365 23.676 21.5806 24.5339 20.9479 25.1666C20.3152 25.7993 19.4573 26.1552 18.5625 26.1563ZM18.5625 21.0938C18.2287 21.0938 17.9025 21.1927 17.625 21.3781C17.3475 21.5636 17.1312 21.8271 17.0035 22.1355C16.8757 22.4438 16.8423 22.7831 16.9074 23.1105C16.9725 23.4378 17.1333 23.7385 17.3693 23.9745C17.6053 24.2105 17.9059 24.3712 18.2333 24.4363C18.5606 24.5014 18.8999 24.468 19.2083 24.3403C19.5166 24.2126 19.7802 23.9963 19.9656 23.7188C20.151 23.4413 20.25 23.115 20.25 22.7813C20.2495 22.3338 20.0716 21.9049 19.7552 21.5885C19.4389 21.2722 19.0099 21.0942 18.5625 21.0938Z" fill="currentColor"/>
<path d="M22.7813 16.875C22.1137 16.875 21.4612 16.6771 20.9062 16.3062C20.3512 15.9354 19.9186 15.4083 19.6632 14.7916C19.4077 14.1749 19.3409 13.4963 19.4711 12.8416C19.6013 12.1869 19.9228 11.5855 20.3948 11.1135C20.8668 10.6415 21.4681 10.3201 22.1228 10.1899C22.7775 10.0596 23.4561 10.1265 24.0728 10.3819C24.6895 10.6374 25.2166 11.0699 25.5875 11.625C25.9583 12.18 26.1563 12.8325 26.1563 13.5C26.1552 14.3948 25.7993 15.2527 25.1666 15.8854C24.5339 16.5181 23.676 16.874 22.7813 16.875ZM22.7813 11.8125C22.4475 11.8125 22.1212 11.9115 21.8437 12.0969C21.5662 12.2823 21.3499 12.5459 21.2222 12.8542C21.0945 13.1626 21.0611 13.5019 21.1262 13.8292C21.1913 14.1566 21.352 14.4572 21.588 14.6932C21.824 14.9292 22.1247 15.09 22.452 15.1551C22.7794 15.2202 23.1187 15.1868 23.427 15.059C23.7354 14.9313 23.9989 14.715 24.1844 14.4375C24.3698 14.16 24.4688 13.8338 24.4688 13.5C24.4683 13.0526 24.2903 12.6236 23.974 12.3073C23.6576 11.9909 23.2287 11.813 22.7813 11.8125Z" fill="currentColor"/>
<path d="M18.5625 7.59375C17.895 7.59375 17.2425 7.39581 16.6875 7.02496C16.1324 6.65411 15.6999 6.12701 15.4444 5.51031C15.189 4.89361 15.1221 4.21501 15.2524 3.56032C15.3826 2.90564 15.704 2.30427 16.176 1.83227C16.648 1.36026 17.2494 1.03883 17.9041 0.908601C18.5588 0.778376 19.2374 0.845212 19.8541 1.10066C20.4708 1.3561 20.9979 1.78869 21.3687 2.3437C21.7396 2.89872 21.9375 3.55124 21.9375 4.21875C21.9365 5.11355 21.5806 5.97141 20.9479 6.60413C20.3152 7.23684 19.4573 7.59275 18.5625 7.59375ZM18.5625 2.53125C18.2287 2.53125 17.9025 2.63022 17.625 2.81565C17.3475 3.00107 17.1312 3.26462 17.0035 3.57297C16.8757 3.88132 16.8423 4.22062 16.9074 4.54797C16.9725 4.87531 17.1333 5.17599 17.3693 5.41199C17.6053 5.648 17.9059 5.80871 18.2333 5.87383C18.5606 5.93894 18.8999 5.90552 19.2083 5.7778C19.5166 5.65008 19.7802 5.43378 19.9656 5.15628C20.151 4.87877 20.25 4.55251 20.25 4.21875C20.2495 3.77134 20.0716 3.34239 19.7552 3.02603C19.4389 2.70966 19.0099 2.53172 18.5625 2.53125Z" fill="currentColor"/>
<path d="M8.4375 7.59375C7.76999 7.59375 7.11747 7.39581 6.56245 7.02496C6.00744 6.65411 5.57485 6.12701 5.31941 5.51031C5.06396 4.89361 4.99713 4.21501 5.12735 3.56032C5.25758 2.90564 5.57901 2.30427 6.05102 1.83227C6.52302 1.36026 7.12439 1.03883 7.77907 0.908601C8.43376 0.778376 9.11236 0.845212 9.72906 1.10066C10.3458 1.3561 10.8729 1.78869 11.2437 2.3437C11.6146 2.89872 11.8125 3.55124 11.8125 4.21875C11.8115 5.11355 11.4556 5.97141 10.8229 6.60413C10.1902 7.23684 9.3323 7.59275 8.4375 7.59375ZM8.4375 2.53125C8.10375 2.53125 7.77748 2.63022 7.49998 2.81565C7.22247 3.00107 7.00618 3.26462 6.87845 3.57297C6.75073 3.88132 6.71731 4.22062 6.78243 4.54797C6.84754 4.87531 7.00826 5.17599 7.24426 5.41199C7.48026 5.648 7.78094 5.80871 8.10829 5.87383C8.43563 5.93894 8.77493 5.90552 9.08328 5.7778C9.39163 5.65008 9.65518 5.43378 9.84061 5.15628C10.026 4.87877 10.125 4.55251 10.125 4.21875C10.1245 3.77134 9.94659 3.34239 9.63023 3.02603C9.31386 2.70966 8.88491 2.53172 8.4375 2.53125Z" fill="currentColor"/>
</g>
<defs>
</defs>
</svg>
