<svg width="27" height="27" viewBox="0 0 27 27" fill="none" xmlns="http://www.w3.org/2000/svg">
<path d="M25.3125 23.625H1.6875V25.3125H25.3125V23.625Z" fill="currentColor"/>
<path d="M22.7812 9.28138C23.005 9.28138 23.2196 9.19248 23.3779 9.03425C23.5361 8.87602 23.625 8.66141 23.625 8.43763V5.90638C23.6249 5.73298 23.5714 5.56381 23.4718 5.42189C23.3721 5.27998 23.2312 5.17221 23.0681 5.11325L13.7869 1.73825C13.6015 1.67123 13.3985 1.67123 13.2131 1.73825L3.93187 5.11325C3.7688 5.17221 3.62786 5.27998 3.52821 5.42189C3.42857 5.56381 3.37507 5.73298 3.375 5.90638V8.43763C3.375 8.66141 3.46389 8.87602 3.62213 9.03425C3.78036 9.19248 3.99497 9.28138 4.21875 9.28138H5.0625V20.2501H3.375V21.9376H23.625V20.2501H21.9375V9.28138H22.7812ZM5.0625 6.497L13.5 3.42575L21.9375 6.497V7.59388H5.0625V6.497ZM15.1875 20.2501H11.8125V9.28138H15.1875V20.2501ZM6.75 9.28138H10.125V20.2501H6.75V9.28138ZM20.25 20.2501H16.875V9.28138H20.25V20.2501Z" fill="currentColor"/>
</svg>
