<svg width="119" height="32" viewBox="0 0 119 32" fill="none" xmlns="http://www.w3.org/2000/svg">
<path d="M15.268 1.61086L11.4788 7.90136H17.9234L21.7126 1.61086H15.268Z" fill="currentColor"/>
<path d="M25.7771 7.90136H11.4788L14.7016 13.4827H29L25.7771 7.90136Z" fill="currentColor"/>
<path d="M15.5116 15.0064L8.36242 27.3891H14.807L21.9562 15.0052L15.5116 15.0064Z" fill="currentColor"/>
<path d="M13.7863 14.9475L6.63715 2.56355L3.41543 8.14605L10.5646 20.5288L13.7863 14.9475Z" fill="currentColor"/>
<path d="M7.34176 14.9475L0 14.8104L3.22172 20.3918L10.5646 20.5277L7.34176 14.9475Z" fill="currentColor"/>
<path d="M18.7345 20.5877L22.2881 27.0142L25.5098 21.4328L21.9573 15.0052L18.7345 20.5877Z" fill="currentColor"/>
<path d="M40.861 22.7647L37.3355 10.2727H39.7692L42.02 19.4526H42.1359L44.5391 10.2727H46.7533L49.1626 19.4587H49.2724L51.5231 10.2727H53.9569L50.4313 22.7647H48.1989L45.698 13.9996H45.6004L43.0935 22.7647H40.861Z" fill="currentColor"/>
<path d="M55.4284 22.7647V13.3957H57.6365V22.7647H55.4284ZM56.5385 12.066C56.1888 12.066 55.8879 11.9501 55.6358 11.7183C55.3837 11.4825 55.2576 11.1999 55.2576 10.8705C55.2576 10.537 55.3837 10.2544 55.6358 10.0226C55.8879 9.78679 56.1888 9.66887 56.5385 9.66887C56.8923 9.66887 57.1932 9.78679 57.4413 10.0226C57.6934 10.2544 57.8195 10.537 57.8195 10.8705C57.8195 11.1999 57.6934 11.4825 57.4413 11.7183C57.1932 11.9501 56.8923 12.066 56.5385 12.066Z" fill="currentColor"/>
<path d="M62.1151 17.2751V22.7647H59.907V13.3957H62.0175V14.9877H62.1273C62.3428 14.4632 62.6864 14.0463 63.1581 13.7373C63.6339 13.4283 64.2215 13.2737 64.9209 13.2737C65.5675 13.2737 66.1307 13.412 66.6105 13.6885C67.0944 13.965 67.4685 14.3656 67.7328 14.8901C68.0012 15.4147 68.1334 16.0511 68.1293 16.7993V22.7647H65.9212V17.1409C65.9212 16.5146 65.7586 16.0246 65.4333 15.6709C65.112 15.3171 64.6668 15.1402 64.0975 15.1402C63.7112 15.1402 63.3675 15.2256 63.0666 15.3964C62.7698 15.5631 62.536 15.8051 62.3652 16.1222C62.1985 16.4394 62.1151 16.8237 62.1151 17.2751Z" fill="currentColor"/>
<path d="M73.8507 22.9294C73.1147 22.9294 72.456 22.7403 71.8745 22.3621C71.293 21.984 70.8335 21.435 70.4959 20.7152C70.1584 19.9955 69.9897 19.1212 69.9897 18.0924C69.9897 17.0514 70.1605 16.1731 70.502 15.4574C70.8477 14.7376 71.3133 14.1948 71.8989 13.8288C72.4844 13.4588 73.1371 13.2737 73.8568 13.2737C74.4058 13.2737 74.8572 13.3673 75.2109 13.5543C75.5647 13.7373 75.8453 13.9589 76.0527 14.2192C76.2601 14.4753 76.4207 14.7173 76.5346 14.945H76.626V10.2727H78.8402V22.7647H76.6687V21.2886H76.5346C76.4207 21.5163 76.256 21.7583 76.0405 22.0145C75.825 22.2666 75.5403 22.4821 75.1865 22.661C74.8328 22.8399 74.3875 22.9294 73.8507 22.9294ZM74.4668 21.1178C74.9344 21.1178 75.3329 20.9918 75.6623 20.7396C75.9917 20.4835 76.2418 20.1276 76.4126 19.6722C76.5833 19.2168 76.6687 18.6861 76.6687 18.0802C76.6687 17.4743 76.5833 16.9477 76.4126 16.5004C76.2458 16.0531 75.9978 15.7054 75.6684 15.4574C75.3431 15.2093 74.9426 15.0853 74.4668 15.0853C73.9748 15.0853 73.564 15.2134 73.2347 15.4696C72.9053 15.7258 72.6572 16.0795 72.4905 16.5309C72.3238 16.9823 72.2404 17.4987 72.2404 18.0802C72.2404 18.6658 72.3238 19.1883 72.4905 19.6478C72.6613 20.1032 72.9114 20.4631 73.2408 20.7274C73.5742 20.9877 73.9829 21.1178 74.4668 21.1178Z" fill="currentColor"/>
<path d="M81.1931 22.7647V13.3957H83.3036V14.9877H83.4134C83.6086 14.451 83.9318 14.0321 84.3832 13.7312C84.8346 13.4262 85.3734 13.2737 85.9996 13.2737C86.634 13.2737 87.1687 13.4283 87.6038 13.7373C88.043 14.0423 88.352 14.4591 88.5309 14.9877H88.6285C88.8359 14.4672 89.1856 14.0524 89.6777 13.7434C90.1738 13.4303 90.7614 13.2737 91.4404 13.2737C92.3025 13.2737 93.006 13.5462 93.5509 14.0911C94.0958 14.636 94.3683 15.431 94.3683 16.476V22.7647H92.1541V16.8176C92.1541 16.2361 91.9996 15.8112 91.6905 15.5428C91.3815 15.2703 91.0033 15.1341 90.556 15.1341C90.0233 15.1341 89.6065 15.3008 89.3056 15.6343C89.0087 15.9637 88.8603 16.3927 88.8603 16.9213V22.7647H86.695V16.7261C86.695 16.2422 86.5486 15.8559 86.2558 15.5672C85.9671 15.2785 85.5889 15.1341 85.1213 15.1341C84.8041 15.1341 84.5154 15.2154 84.2551 15.3781C83.9949 15.5367 83.7875 15.7624 83.633 16.0551C83.4784 16.3439 83.4012 16.6814 83.4012 17.0677V22.7647H81.1931Z" fill="currentColor"/>
<path d="M96.6083 22.7647V13.3957H98.8164V22.7647H96.6083ZM97.7185 12.066C97.3687 12.066 97.0678 11.9501 96.8157 11.7183C96.5636 11.4825 96.4375 11.1999 96.4375 10.8705C96.4375 10.537 96.5636 10.2544 96.8157 10.0226C97.0678 9.78679 97.3687 9.66887 97.7185 9.66887C98.0722 9.66887 98.3732 9.78679 98.6212 10.0226C98.8733 10.2544 98.9994 10.537 98.9994 10.8705C98.9994 11.1999 98.8733 11.4825 98.6212 11.7183C98.3732 11.9501 98.0722 12.066 97.7185 12.066Z" fill="currentColor"/>
<path d="M103.295 10.2727V22.7647H101.087V10.2727H103.295Z" fill="currentColor"/>
<path d="M107.774 10.2727V22.7647H105.566V10.2727H107.774Z" fill="currentColor"/>
</svg>
